<svg width="40" height="40" viewBox="0 0 40 40" fill="none" xmlns="http://www.w3.org/2000/svg">
<path d="M0 20C0 8.95431 8.95431 0 20 0C31.0457 0 40 8.95431 40 20C40 31.0457 31.0457 40 20 40C8.95431 40 0 31.0457 0 20Z" fill="url(#paint0_linear_836_10516)"/>
<path d="M29.375 12.1875H10.625C10.4178 12.1875 10.2191 12.2698 10.0726 12.4163C9.92606 12.5628 9.84375 12.7615 9.84375 12.9688V26.25C9.84375 26.6644 10.0084 27.0618 10.3014 27.3549C10.5944 27.6479 10.9918 27.8125 11.4062 27.8125H28.5938C29.0082 27.8125 29.4056 27.6479 29.6986 27.3549C29.9916 27.0618 30.1562 26.6644 30.1562 26.25V12.9688C30.1562 12.7615 30.0739 12.5628 29.9274 12.4163C29.7809 12.2698 29.5822 12.1875 29.375 12.1875ZM27.3662 13.75L20 20.5029L12.6338 13.75H27.3662ZM28.5938 26.25H11.4062V14.7451L19.4717 22.1387C19.6158 22.271 19.8043 22.3444 20 22.3444C20.1957 22.3444 20.3842 22.271 20.5283 22.1387L28.5938 14.7451V26.25Z" fill="white"/>
<defs>
<linearGradient id="paint0_linear_836_10516" x1="20" y1="0" x2="20" y2="40" gradientUnits="userSpaceOnUse">
<stop stop-color="#46BEDF"/>
<stop offset="1" stop-color="#266779"/>
</linearGradient>
</defs>
</svg>
